<svg width="224" height="300" viewBox="0 0 224 300" fill="none" xmlns="http://www.w3.org/2000/svg">
<circle cx="112.383" cy="100.184" r="49" stroke="#077187" stroke-width="2"/>
<circle cx="68.6987" cy="125" r="49" transform="rotate(-120 68.6987 125)" stroke="#077187" stroke-width="2"/>
<circle cx="155.301" cy="75" r="49" transform="rotate(-120 155.301 75)" stroke="#077187" stroke-width="2"/>
<circle cx="155.301" cy="125" r="49" transform="rotate(120 155.301 125)" stroke="#077187" stroke-width="2"/>
<circle cx="68.6987" cy="75" r="49" transform="rotate(120 68.6987 75)" stroke="#077187" stroke-width="2"/>
<circle cx="112" cy="50" r="49" stroke="#077187" stroke-width="2"/>
<circle cx="112" cy="150" r="49" stroke="#077187" stroke-width="2"/>
<path d="M38.664 288H34.74C33.18 288 31.944 287.544 31.032 286.632C30.144 285.72 29.7 284.472 29.7 282.888V269.964C29.7 268.38 30.144 267.132 31.032 266.22C31.944 265.308 33.18 264.852 34.74 264.852H38.664C40.224 264.852 41.46 265.308 42.372 266.22C43.284 267.132 43.74 268.38 43.74 269.964V271.584C43.74 271.872 43.608 272.016 43.344 272.016H42.3C42.036 272.016 41.904 271.872 41.904 271.584V270.036C41.904 268.884 41.616 268.008 41.04 267.408C40.464 266.784 39.624 266.472 38.52 266.472H34.884C33.78 266.472 32.94 266.784 32.364 267.408C31.788 268.032 31.5 268.908 31.5 270.036V282.816C31.5 283.944 31.788 284.82 32.364 285.444C32.94 286.068 33.78 286.38 34.884 286.38H38.52C39.624 286.38 40.464 286.08 41.04 285.48C41.616 284.856 41.904 283.968 41.904 282.816V278.064C41.904 277.848 41.796 277.74 41.58 277.74H37.44C37.176 277.74 37.044 277.608 37.044 277.344V276.516C37.044 276.252 37.176 276.12 37.44 276.12H43.056C43.512 276.12 43.74 276.36 43.74 276.84V282.888C43.74 284.472 43.284 285.72 42.372 286.632C41.46 287.544 40.224 288 38.664 288ZM63.2903 288H60.9863C59.4263 288 58.1903 287.544 57.2783 286.632C56.3903 285.72 55.9463 284.472 55.9463 282.888V274.752C55.9463 273.168 56.3903 271.92 57.2783 271.008C58.1903 270.096 59.4263 269.64 60.9863 269.64H68.6183C68.8583 269.64 68.9783 269.784 68.9783 270.072V287.568C68.9783 287.856 68.8583 288 68.6183 288H67.5743C67.3103 288 67.1783 287.856 67.1783 287.568V286.128H67.0343C66.4103 287.376 65.1623 288 63.2903 288ZM67.1783 282.852V271.584C67.1783 271.368 67.0583 271.26 66.8183 271.26H61.1303C60.0263 271.26 59.1863 271.572 58.6103 272.196C58.0343 272.82 57.7463 273.696 57.7463 274.824V282.816C57.7463 283.944 58.0343 284.82 58.6103 285.444C59.1863 286.068 60.0263 286.38 61.1303 286.38H63.4703C64.6223 286.38 65.5223 286.08 66.1703 285.48C66.8423 284.856 67.1783 283.98 67.1783 282.852ZM82.9806 288H81.9366C81.6966 288 81.5766 287.856 81.5766 287.568V270.072C81.5766 269.784 81.6966 269.64 81.9366 269.64H82.9806C83.2446 269.64 83.3766 269.784 83.3766 270.072V271.512H83.5206C84.1926 270.264 85.4406 269.64 87.2646 269.64H89.6406C91.1766 269.64 92.3886 270.096 93.2766 271.008C94.1646 271.92 94.6086 273.168 94.6086 274.752V287.568C94.6086 287.856 94.4886 288 94.2486 288H93.2046C92.9406 288 92.8086 287.856 92.8086 287.568V274.824C92.8086 273.696 92.5206 272.82 91.9446 272.196C91.3686 271.572 90.5286 271.26 89.4246 271.26H87.0846C85.9326 271.26 85.0206 271.572 84.3486 272.196C83.7006 272.796 83.3766 273.66 83.3766 274.788V287.568C83.3766 287.856 83.2446 288 82.9806 288ZM114.043 288H111.631C110.095 288 108.883 287.544 107.995 286.632C107.107 285.72 106.663 284.472 106.663 282.888V274.752C106.663 273.168 107.107 271.92 107.995 271.008C108.883 270.096 110.095 269.64 111.631 269.64H114.043C115.891 269.64 117.151 270.264 117.823 271.512H117.967V263.124C117.967 262.836 118.087 262.692 118.327 262.692H119.371C119.635 262.692 119.767 262.836 119.767 263.124V287.568C119.767 287.856 119.635 288 119.371 288H118.327C118.087 288 117.967 287.856 117.967 287.568V286.128H117.823C117.151 287.376 115.891 288 114.043 288ZM117.967 282.852V274.788C117.967 273.66 117.631 272.796 116.959 272.196C116.311 271.572 115.411 271.26 114.259 271.26H111.847C110.743 271.26 109.903 271.572 109.327 272.196C108.751 272.82 108.463 273.696 108.463 274.824V282.816C108.463 283.944 108.751 284.82 109.327 285.444C109.903 286.068 110.743 286.38 111.847 286.38H114.259C115.411 286.38 116.311 286.08 116.959 285.48C117.631 284.856 117.967 283.98 117.967 282.852ZM139.347 288H137.043C135.483 288 134.247 287.544 133.335 286.632C132.447 285.72 132.003 284.472 132.003 282.888V274.752C132.003 273.168 132.447 271.92 133.335 271.008C134.247 270.096 135.483 269.64 137.043 269.64H144.675C144.915 269.64 145.035 269.784 145.035 270.072V287.568C145.035 287.856 144.915 288 144.675 288H143.631C143.367 288 143.235 287.856 143.235 287.568V286.128H143.091C142.467 287.376 141.219 288 139.347 288ZM143.235 282.852V271.584C143.235 271.368 143.115 271.26 142.875 271.26H137.187C136.083 271.26 135.243 271.572 134.667 272.196C134.091 272.82 133.803 273.696 133.803 274.824V282.816C133.803 283.944 134.091 284.82 134.667 285.444C135.243 286.068 136.083 286.38 137.187 286.38H139.527C140.679 286.38 141.579 286.08 142.227 285.48C142.899 284.856 143.235 283.98 143.235 282.852ZM158.498 293.472H157.166C156.902 293.472 156.77 293.34 156.77 293.076V292.212C156.77 291.948 156.902 291.816 157.166 291.816H158.138C158.858 291.816 159.47 291.708 159.974 291.492C160.478 291.3 160.922 290.928 161.306 290.376C161.69 289.824 161.942 289.392 162.062 289.08C162.398 288.336 162.674 287.652 162.89 287.028H162.206C161.942 287.028 161.774 286.884 161.702 286.596L155.978 270.072C155.882 269.784 155.978 269.64 156.266 269.64H157.382C157.622 269.64 157.778 269.784 157.85 270.072L163.142 285.516H163.286L168.578 270.072C168.65 269.784 168.806 269.64 169.046 269.64H170.126C170.414 269.64 170.522 269.784 170.45 270.072C166.154 282.648 163.91 289.152 163.718 289.584C163.55 290.016 163.226 290.604 162.746 291.348C161.834 292.764 160.418 293.472 158.498 293.472ZM188.341 288H186.037C184.477 288 183.241 287.544 182.329 286.632C181.441 285.72 180.997 284.472 180.997 282.888V274.752C180.997 273.168 181.441 271.92 182.329 271.008C183.241 270.096 184.477 269.64 186.037 269.64H193.669C193.909 269.64 194.029 269.784 194.029 270.072V287.568C194.029 287.856 193.909 288 193.669 288H192.625C192.361 288 192.229 287.856 192.229 287.568V286.128H192.085C191.461 287.376 190.213 288 188.341 288ZM192.229 282.852V271.584C192.229 271.368 192.109 271.26 191.869 271.26H186.181C185.077 271.26 184.237 271.572 183.661 272.196C183.085 272.82 182.797 273.696 182.797 274.824V282.816C182.797 283.944 183.085 284.82 183.661 285.444C184.237 286.068 185.077 286.38 186.181 286.38H188.521C189.673 286.38 190.573 286.08 191.221 285.48C191.893 284.856 192.229 283.98 192.229 282.852Z" fill="#077187"/>
</svg>
